<svg width="20" height="20" viewBox="0 0 20 20" fill="none" xmlns="http://www.w3.org/2000/svg">
<path fill-rule="evenodd" clip-rule="evenodd" d="M14.1666 8.56066L13.6363 8.03033L10.7499 5.14399L10.7499 13.3333L10.7499 14.0833H9.24992V13.3333L9.24992 5.14399L6.36358 8.03033L5.83325 8.56066L4.77259 7.5L5.30292 6.96967L9.46959 2.803C9.76248 2.51011 10.2374 2.51011 10.5302 2.803L14.6969 6.96967L15.2272 7.5L14.1666 8.56066ZM4.08325 13.4167V14.1667V15.8333C4.08325 16.0764 4.17983 16.3096 4.35174 16.4815C4.52365 16.6534 4.7568 16.75 4.99992 16.75H14.9999C15.243 16.75 15.4762 16.6534 15.6481 16.4815C15.82 16.3096 15.9166 16.0764 15.9166 15.8333V14.1667V13.4167H17.4166V14.1667V15.8333C17.4166 16.4743 17.162 17.089 16.7088 17.5422C16.2555 17.9954 15.6409 18.25 14.9999 18.25H4.99992C4.35898 18.25 3.74429 17.9954 3.29108 17.5422C2.83786 17.089 2.58325 16.4743 2.58325 15.8333V14.1667V13.4167H4.08325Z" fill="#757575"/>
</svg>
